<?xml version="1.0" encoding="UTF-8"?>
<svg xmlns="http://www.w3.org/2000/svg" xmlns:xlink="http://www.w3.org/1999/xlink" width="24px" height="24px" viewBox="0 0 24 24" version="1.1">
<g id="surface1">
<path style=" stroke:none;fill-rule:evenodd;fill:rgb(0%,0%,0%);fill-opacity:1;" d="M 12.996094 10.777344 L 12.996094 10.742188 C 12.988281 10.753906 12.980469 10.765625 12.972656 10.777344 Z M 12.996094 10.777344 "/>
<path style=" stroke:none;fill-rule:evenodd;fill:rgb(0%,0%,0%);fill-opacity:1;" d="M 0 0 L 0 24 L 24 24 L 24 0 Z M 7.464844 19.9375 L 3.902344 19.9375 L 3.902344 9.226562 L 7.464844 9.226562 Z M 5.683594 7.761719 L 5.660156 7.761719 C 4.464844 7.761719 3.691406 6.941406 3.691406 5.914062 C 3.691406 4.859375 4.488281 4.0625 5.707031 4.0625 C 6.925781 4.0625 7.675781 4.859375 7.699219 5.914062 C 7.699219 6.941406 6.925781 7.761719 5.683594 7.761719 Z M 20.308594 19.9375 L 16.746094 19.9375 L 16.746094 14.207031 C 16.746094 12.769531 16.230469 11.785156 14.941406 11.785156 C 13.957031 11.785156 13.371094 12.445312 13.113281 13.085938 C 13.019531 13.316406 12.996094 13.632812 12.996094 13.957031 L 12.996094 19.9375 L 9.433594 19.9375 C 9.433594 19.9375 9.480469 10.230469 9.433594 9.226562 L 12.996094 9.226562 L 12.996094 10.742188 C 13.46875 10.015625 14.316406 8.972656 16.207031 8.972656 C 18.550781 8.972656 20.308594 10.503906 20.308594 13.796875 Z M 20.308594 19.9375 "/>
</g>
</svg>
